<?xml version="1.0" encoding="utf-8"?>
<svg viewBox="0 0 500 500" xmlns="http://www.w3.org/2000/svg">
  <path d="M 111.833 387.117 L 144.078 387.117 L 144.078 463.799 L 111.833 463.799 Z" fill="#00ccb3" style="" transform="matrix(-0.002135, -0.999998, 0.999998, -0.002135, -297.228352, 554.32157)"/>
  <path d="M 177.768 386.949 L 231.509 386.949 L 231.509 463.634 L 177.768 463.634 Z" fill="#3e3d42" style="" transform="matrix(-0.002135, -0.999998, 0.999998, -0.002135, -220.215127, 630.837539)"/>
  <path d="M 111.075 32.422 L 143.323 32.422 L 143.323 109.104 L 111.075 109.104 Z" fill="#00ccb3" style="" transform="matrix(-0.002135, -0.999998, 0.999998, -0.002135, 56.707732, 198.112783)"/>
  <path d="M 177.01 32.256 L 230.753 32.256 L 230.753 108.941 L 177.01 108.941 Z" fill="#3e3d42" style="" transform="matrix(-0.002135, -0.999998, 0.999998, -0.002135, 133.718449, 274.630263)"/>
  <path d="M 446.843 90.856 L 489.835 90.856 C 489.835 119.102 446.843 167.54 446.843 167.54 C 446.843 167.54 403.85 119.102 403.85 90.856 Z" fill="#ff9811" style="" transform="matrix(-0.002135, -0.999998, 0.999998, -0.002135, 318.598804, 576.315316)"/>
  <path d="M 447.074 116.547 C 447.074 134.197 414.828 174.059 414.828 174.059 C 414.828 174.059 382.584 134.197 382.584 116.547 C 384.197 97.212 398.557 82.984 414.828 84.595 C 431.112 82.984 445.471 97.212 447.074 116.547 Z" fill="#ff5023" style="" transform="matrix(-0.002135, -0.999998, 0.999998, -0.002135, 286.450133, 544.368876)"/>
  <path d="M 447.349 327.319 L 490.34 327.319 C 490.34 355.565 447.349 404.003 447.349 404.003 C 447.349 404.003 404.354 355.565 404.354 327.319 Z" fill="#ff9811" style="" transform="matrix(-0.002135, -0.999998, 0.999998, -0.002135, 82.641924, 813.787662)"/>
  <path d="M 447.579 353.009 C 447.579 370.659 415.333 410.521 415.333 410.521 C 415.333 410.521 383.088 370.659 383.088 353.009 C 384.699 333.674 399.06 319.446 415.333 321.057 C 431.615 319.446 445.976 333.674 447.579 353.009 Z" fill="#ff5023" style="" transform="matrix(-0.002135, -0.999998, 0.999998, -0.002135, 50.494245, 781.840229)"/>
  <path d="M 427.417 86.805 L 419.677 169.242 L 312.192 169.242 L 307.142 115.31 C 348.116 112.089 388.55 102.501 427.417 86.805 Z" fill="#e0e0e2" style="" transform="matrix(-0.002135, -0.999998, 0.999998, -0.002135, 240.040426, 495.575491)"/>
  <path d="M 427.927 354.458 L 422.873 408.39 L 315.39 408.39 L 307.654 325.953 C 346.527 341.649 386.963 351.237 427.927 354.458 Z" fill="#e0e0e2" style="" transform="matrix(-0.002135, -0.999998, 0.999998, -0.002135, 1.405057, 735.745078)"/>
  <rect fill="#898890" height="76.685" rx="1" width="21.498" x="87.067" y="308.639" style="" transform="matrix(-0.002135, -0.999998, 0.999998, -0.002135, -1.597615, 496.678986)"/>
  <rect fill="#a8a8aa" height="76.685" rx="1" width="21.498" x="388.021" y="308.639" style="" transform="matrix(-0.002135, -0.999998, 0.999998, -0.002135, -1.597615, 496.678986)"/>
  <path d="M 266.426 204.706 L 266.426 292.638 L 180.44 292.638 L 180.44 204.706 C 194.413 203.683 208.707 203.172 223.434 203.172 C 238.157 203.172 252.454 203.683 266.426 204.706 Z" fill="#ffda44" style="" transform="matrix(-0.002135, -0.999998, 0.999998, -0.002135, -23.994406, 471.866765)"/>
  <path d="M 549.361 202.982 C 549.361 225.221 527.972 245.541 492.611 261.132 C 453.744 276.828 413.31 286.416 372.336 289.637 C 353.313 291.425 333.429 292.446 312.899 292.446 C 292.369 292.446 272.486 291.425 253.461 289.637 C 212.497 286.416 172.061 276.828 133.188 261.132 C 97.825 245.413 76.435 225.221 76.435 202.982 Z" fill="#ab2300" style="" transform="matrix(-0.002135, -0.999998, 0.999998, -0.002135, 65.852607, 561.140171)"/>
  <path d="M 288.395 107.027 C 308.923 120.192 320.638 135.655 320.638 152.142 L 127.168 152.142 L 127.168 64.21 C 152.373 65.796 177.46 69.257 202.301 74.561 C 213.693 77.117 224.547 79.928 234.652 83.126 C 253.311 88.493 271.357 96.519 288.395 107.027 Z" fill="#ff6243" style="" transform="matrix(-0.002135, -0.999998, 0.999998, -0.002135, 116.205281, 332.309444)"/>
  <path d="M 246.103 354.016 C 270.942 348.712 296.04 345.251 321.234 343.665 L 321.234 431.597 L 127.764 431.597 C 127.764 415.11 139.481 399.647 160.01 386.482 C 177.055 375.974 195.104 367.948 213.751 362.581 C 223.853 359.383 234.709 356.572 246.103 354.016 Z" fill="#ff6243" style="" transform="matrix(-0.002135, -0.999998, 0.999998, -0.002135, -162.651807, 612.957078)"/>
  <path d="M 270.817 285.949 C 245.976 280.645 220.889 277.184 195.684 275.598 C 181.712 274.575 167.415 274.064 152.692 274.064 C 137.965 274.064 123.671 274.575 109.698 275.598 C 84.504 277.184 59.406 280.645 34.567 285.949 L 45.207 210.16 L 260.175 210.16 Z" fill="#57565c" style="" transform="matrix(-0.002135, -0.999998, 0.999998, -0.002135, -95.035948, 401.275746)"/>
  <path d="M -22.39 299.446 C -22.39 220.728 49.266 171.536 106.588 210.903 C 133.199 229.165 149.582 262.919 149.582 299.446 Z" fill="#00e7f0" style="" transform="matrix(-0.002135, -0.999998, 0.999998, -0.002135, -184.513178, 312.371381)"/>
  <rect fill="#9bfbff" height="25.561" rx="1" width="42.996" x="194.552" y="53.021" style="" transform="matrix(-0.002135, -0.999998, 0.999998, -0.002135, -1.597615, 496.678986)"/>
  <rect fill="#787680" height="25.561" rx="1" width="75.237" x="151.558" y="129.708" style="" transform="matrix(-0.002135, -0.999998, 0.999998, -0.002135, -1.597615, 496.678986)"/>
  <path d="M 206.322 391.937 L 292.309 391.937 L 292.309 404.719 L 206.322 404.719 Z" fill="#ff8169" style="" transform="matrix(-0.002135, -0.999998, 0.999998, -0.002135, -148.479308, 648.493363)"/>
</svg>