<?xml version="1.0" encoding="utf-8"?>
<svg viewBox="0 0 500 500" xmlns="http://www.w3.org/2000/svg">
  <polygon style="fill: rgb(221, 31, 131);" points="102.531 96.274 16.081 182.777 16.081 305.104 102.531 391.593 224.771 391.593 311.22 305.104 311.22 182.777 224.771 96.274" transform="matrix(-0.715718, -0.698389, 0.698389, -0.715718, 110.417594, 532.812857)"/>
  <polyline style="fill: rgb(204, 27, 112);" points="224.771 391.593 311.22 305.104 311.22 182.777 224.771 96.274 102.531 96.274 16.081 182.777" transform="matrix(-0.715718, -0.698389, 0.698389, -0.715718, 110.417594, 532.812857)"/>
  <polyline style="fill: rgb(188, 0, 94);" points="150.61 361.407 237.057 274.917 237.058 152.591 150.61 66.088 28.369 66.088" transform="matrix(-0.715718, -0.698389, 0.698389, -0.715718, 78.419974, 459.416161)"/>
  <polyline style="fill: rgb(160, 0, 88);" points="206.857 349.112 206.857 226.785 120.408 140.283 -1.833 140.283" transform="matrix(-0.715718, -0.698389, 0.698389, -0.715718, 4.987567, 491.425211)"/>
  <polygon style="fill: rgb(142, 79, 183);" points="245.251 160.427 197.22 208.491 197.22 276.478 245.251 324.535 313.189 324.535 361.232 276.478 361.232 208.491 313.189 160.427" transform="matrix(-0.715718, -0.698389, 0.698389, -0.715718, 309.726961, 611.037492)"/>
  <polyline style="fill: rgb(125, 60, 160);" points="313.189 324.535 361.232 276.478 361.232 208.491 313.189 160.427 245.251 160.427 197.22 208.491" transform="matrix(-0.715718, -0.698389, 0.698389, -0.715718, 309.726961, 611.037492)"/>
  <polyline style="fill: rgb(107, 44, 147);" points="271.987 307.761 320.029 259.703 320.029 191.717 271.987 143.654 204.048 143.654" transform="matrix(-0.715718, -0.698389, 0.698389, -0.715718, 291.952494, 570.255318)"/>
  <polyline style="fill: rgb(71, 26, 114);" points="303.247 300.931 303.247 232.945 255.205 184.881 187.266 184.881" transform="matrix(-0.715718, -0.698389, 0.698389, -0.715718, 251.14808, 588.042736)"/>
  <polygon style="fill: rgb(125, 60, 160);" points="317.872 63.738 298.152 83.459 298.152 111.347 317.872 131.069 345.728 131.069 365.44 111.347 365.44 83.459 345.728 63.738" transform="matrix(-0.715718, -0.698389, 0.698389, -0.715718, 501.242849, 398.839725)"/>
  <polyline style="fill: rgb(107, 44, 147);" points="345.728 131.069 365.44 111.347 365.44 83.459 345.728 63.738 317.872 63.738 298.152 83.459" transform="matrix(-0.715718, -0.698389, 0.698389, -0.715718, 501.242849, 398.839725)"/>
  <polyline style="fill: rgb(90, 36, 132);" points="358.553 128.265 358.553 100.376 338.839 80.656 310.983 80.656 291.264 100.376" transform="matrix(-0.715718, -0.698389, 0.698389, -0.715718, 484.497314, 406.137392)"/>
  <polygon style="fill: rgb(221, 31, 131);" points="363.96 316.471 358.913 321.51 358.913 328.636 363.96 333.669 371.064 333.669 376.112 328.636 376.112 321.51 371.064 316.471" transform="matrix(-0.715718, -0.698389, 0.698389, -0.715718, 403.522429, 814.395288)"/>
  <g transform="matrix(-0.572648, -0.558783, -0.559172, 0.573047, 522.471436, 236.425598)" style="">
    <polygon style="fill:#8E4FB7;" points="51.232,301.836 38.306,288.918 38.306,270.643 51.232,257.725 69.491,257.725 &#10;&#9;&#9;82.433,270.643 82.433,288.918 69.491,301.836 &#9;"/>
    <polygon style="fill:#8E4FB7;" points="300.647,438.697 275.599,413.672 275.599,378.258 300.647,353.233 336.031,353.233 &#10;&#9;&#9;361.095,378.258 361.095,413.672 336.031,438.697 &#9;"/>
  </g>
  <polygon style="fill: rgb(107, 44, 147);" points="84.556 271.268 104.597 251.232 132.908 251.232 152.962 271.268 152.962 299.623 132.908 319.659 104.597 319.659 104.439 319.489 84.556 271.464" transform="matrix(-0.715718, -0.698389, 0.698389, -0.715718, 4.404892, 572.684019)"/>
  <polygon style="fill: rgb(125, 60, 160);" points="79.945 262.56 106.017 262.56 126.071 282.596 126.071 308.713" transform="matrix(-0.715718, -0.698389, 0.698389, -0.715718, -22.752788, 562.011405)"/>
  <polygon style="fill: rgb(142, 79, 183);" points="189.077 123.407 176.188 136.291 176.188 154.512 189.077 167.396 207.265 167.396 220.166 154.512 220.166 136.291 207.265 123.407" transform="matrix(-0.715718, -0.698389, 0.698389, -0.715718, 238.46902, 387.872676)"/>
  <polygon style="fill: rgb(125, 60, 160);" points="194.286 164.116 177.523 123.615 181.021 120.127 199.207 120.127 212.109 133.01 212.109 151.232 199.207 164.116" transform="matrix(-0.715718, -0.698389, 0.698389, -0.715718, 234.993194, 379.897831)"/>
  <path style="fill: rgb(221, 31, 131);" d="M 468.69 193.565 C 467.078 193.565 465.451 194.182 464.233 195.411 L 394.91 264.787 C 392.432 267.253 392.432 271.239 394.91 273.705 C 397.374 276.171 401.356 276.171 403.821 273.705 L 473.145 204.331 C 475.61 201.865 475.61 197.878 473.145 195.412 C 471.917 194.182 470.304 193.565 468.69 193.565 Z" transform="matrix(-0.715718, -0.698389, 0.698389, -0.715718, 580.846458, 705.555171)"/>
  <g transform="matrix(-0.572648, -0.558783, -0.559172, 0.573047, 522.471436, 236.425598)" style="">
    <path style="fill:#BC005E;" d="M158.217,88.615c-2.016,0-4.049-0.772-5.569-2.308l-50.554-50.546c-3.08-3.08-3.08-8.058,0-11.138 c3.08-3.08,8.058-3.08,11.138,0l50.554,50.546c3.08,3.08,3.08,8.058,0,11.138C162.25,87.843,160.233,88.615,158.217,88.615z"/>
    <path style="fill:#BC005E;" d="M160.186,502.808c-2.016,0-4.049-0.772-5.569-2.308L41.709,387.6c-3.08-3.08-3.08-8.058,0-11.138 c3.08-3.08,8.058-3.08,11.138,0l112.908,112.9c3.08,3.08,3.08,8.058,0,11.138C164.219,502.036,162.203,502.808,160.186,502.808z"/>
  </g>
  <g transform="matrix(-0.572648, -0.558783, -0.559172, 0.573047, 522.471436, 236.425598)" style="">
    <path style="fill:#DD1F83;" d="M74.202,176.577c-1.016,0-2.016-0.386-2.788-1.15l-24.292-24.285c-1.552-1.536-1.552-4.033,0-5.569 c1.536-1.536,4.033-1.536,5.553,0l24.292,24.285c1.552,1.536,1.552,4.033,0,5.569C76.218,176.191,75.202,176.577,74.202,176.577z"/>
    <path style="fill:#DD1F83;" d="M33.494,135.877c-1,0-2.016-0.386-2.788-1.15L6.413,110.434c-1.536-1.536-1.536-4.033,0-5.569 c1.536-1.536,4.033-1.536,5.569,0l24.292,24.285c1.536,1.536,1.536,4.033,0,5.569C35.51,135.491,34.51,135.877,33.494,135.877z"/>
    <path style="fill:#DD1F83;" d="M440.479,112.246c-1.016,0-2.017-0.386-2.788-1.15l-24.292-24.285c-1.552-1.536-1.552-4.033,0-5.569 c1.536-1.536,4.033-1.536,5.553,0l24.292,24.285c1.552,1.536,1.552,4.033,0,5.569C442.495,111.86,441.479,112.246,440.479,112.246z "/>
    <path style="fill:#DD1F83;" d="M399.771,71.546c-1,0-2.016-0.386-2.788-1.15L372.69,46.112c-1.536-1.536-1.536-4.033,0-5.569 c1.536-1.536,4.033-1.536,5.569,0l24.292,24.285c1.536,1.536,1.536,4.033,0,5.569C401.787,71.168,400.787,71.546,399.771,71.546z"/>
  </g>
  <g transform="matrix(-0.572648, -0.558783, -0.559172, 0.573047, 522.471436, 236.425598)" style=""/>
  <g transform="matrix(-0.572648, -0.558783, -0.559172, 0.573047, 522.471436, 236.425598)" style=""/>
  <g transform="matrix(-0.572648, -0.558783, -0.559172, 0.573047, 522.471436, 236.425598)" style=""/>
  <g transform="matrix(-0.572648, -0.558783, -0.559172, 0.573047, 522.471436, 236.425598)" style=""/>
  <g transform="matrix(-0.572648, -0.558783, -0.559172, 0.573047, 522.471436, 236.425598)" style=""/>
  <g transform="matrix(-0.572648, -0.558783, -0.559172, 0.573047, 522.471436, 236.425598)" style=""/>
  <g transform="matrix(-0.572648, -0.558783, -0.559172, 0.573047, 522.471436, 236.425598)" style=""/>
  <g transform="matrix(-0.572648, -0.558783, -0.559172, 0.573047, 522.471436, 236.425598)" style=""/>
  <g transform="matrix(-0.572648, -0.558783, -0.559172, 0.573047, 522.471436, 236.425598)" style=""/>
  <g transform="matrix(-0.572648, -0.558783, -0.559172, 0.573047, 522.471436, 236.425598)" style=""/>
  <g transform="matrix(-0.572648, -0.558783, -0.559172, 0.573047, 522.471436, 236.425598)" style=""/>
  <g transform="matrix(-0.572648, -0.558783, -0.559172, 0.573047, 522.471436, 236.425598)" style=""/>
  <g transform="matrix(-0.572648, -0.558783, -0.559172, 0.573047, 522.471436, 236.425598)" style=""/>
  <g transform="matrix(-0.572648, -0.558783, -0.559172, 0.573047, 522.471436, 236.425598)" style=""/>
  <g transform="matrix(-0.572648, -0.558783, -0.559172, 0.573047, 522.471436, 236.425598)" style=""/>
</svg>