<?xml version="1.0" encoding="utf-8"?>
<svg id="Capa_1" enable-background="new 0 0 512 512" height="512" viewBox="0 0 512 512" width="512" xmlns="http://www.w3.org/2000/svg">
  <g transform="matrix(0.557856, 0.605936, -0.599273, 0.551724, 253.358337, -68.591118)" style="">
    <path d="m423.043 157.529c63.251 4.274 41.028-64.961 15.385-98.917-11.593-15.352-12.704-31.552-10.44-44.695 2.505-14.549-18.565-19.687-23.109-5.64-4.282 13.236-3.986 32.828-8.333 60.067-8.547 53.558-56.414 41.319-110.263 39.61s-30.771 53.849-44.447 88.887-33.335 38.471-46.157 21.794c-12.821-16.677 8.102-47.607 20.923-60.429s-39.229-17.772-67.436 5.307c-25.293 20.695 39.45 77.961-1.642 90.056-61.681 18.156-98.904 65.89-98.904 127.209 0 72.282 56.275 131.217 130.653 131.217 123.964 0 144.404-99.175 152.212-144.266 8.449-48.79 56.138 4.797 95.831-30.117 34.01-29.916-8.547-40.458 7.96-125.378 3.928-20.207-12.233-39.318-20.656-19.659s-14.655 47.866-37.157 38.238c-22.501-9.629-17.671-77.558 45.58-73.284z" fill="#fb1466"/>
    <path d="m423.041 157.532c-45.944-3.104-61.063 31.888-57.268 54.958-4.661 3.867-10.53 5.095-18.357 1.743-22.503-9.622-17.677-77.554 45.583-73.284 63.25 4.28 41.025-64.962 15.377-98.912-3.145-4.166-5.517-8.395-7.26-12.613-.01 0 0-.01 0-.01.897-8.343 1.897-15.346 3.764-21.131 4.548-14.057 25.618-8.91 23.112 5.631-2.269 13.149-1.155 29.351 10.437 44.697 25.637 33.959 47.862 103.19-15.388 98.921z" fill="#e01058"/>
    <path d="m427.321 337.607c-39.695 34.92-87.382-18.667-95.839 30.124-7.807 45.089-28.247 144.269-152.209 144.269-29.815 0-56.711-9.467-78.255-25.473 14.789 5.744 31.011 8.89 48.203 8.89 123.973 0 144.413-99.17 152.22-144.269 8.446-48.791 56.134 4.796 95.828-30.114 30.104-26.484.217-37.777 4.404-98.912 5.229-8.281 8.828-19.935 12.943-29.547 8.426-19.657 24.586-.547 20.657 19.657-16.501 84.917 26.05 95.467-7.952 125.375z" fill="#e01058"/>
    <g>
      <path d="m291.809 381.301c-3.688 16.267-10.127 37.035-22.386 54.321-12.208 17.225-28.598 28.794-49.593 34.882l-3.853-8.344c-1.483-3.224-4.523-5.46-8.035-5.913l-9.921-1.288c-2.884-.381-4.842-2.936-4.739-5.841.103-2.885-1.01-5.779-3.224-7.881l-6.264-5.924c-1.566-1.463-2.627-3.4-3.039-5.491l-1.782-9.024c-.742-3.791-3.554-6.851-7.283-7.922l-36.448-10.395c-1.885-.536-3.575-1.607-4.873-3.07l-8.386-9.436c-1.947-2.205-4.759-3.461-7.706-3.461h-27.052l-1.854-5.12c-.227-.628-.35-1.298-.34-1.968.391-44.741 26.898-78.098 72.844-91.624 10.704-3.152 18.008-8.314 22.983-13.712 2.04-2.215 5.491-2.339 7.737-.33l10.611 9.457c1.453 1.298 2.122 3.255 1.772 5.172l-1.587 8.54c-.154.824.68 1.473 1.432 1.133l43.422-19.718c1.71-.773 3.698-.628 5.285.381l26.033 16.607c2.534 1.617 3.327 4.965 1.772 7.551l-9.9 16.421c-1.968 3.286-.124 7.531 3.626 8.314l.567.113c2.967.628 4.893 3.503 4.327 6.48l-4.09 21.562c-.361 1.906.299 3.853 1.72 5.151l16.534 15.041c1.484 1.349 2.133 3.379 1.69 5.336z" fill="#fb946d"/>
      <path d="m291.809 381.301c-3.688 16.267-10.127 37.035-22.376 54.321-12.218 17.225-28.608 28.794-49.603 34.892l-3.853-8.355c-1.483-3.224-4.523-5.46-8.035-5.913l-9.921-1.288c-1.226-.165-2.287-.721-3.091-1.535l3.915-6.367 24.498-25.518c3.152-3.286 3.77-8.252 1.525-12.218l-7.809-13.794c-2.029-3.606-1.731-8.066.783-11.342l49.593-64.87c-1.968 3.276-.124 7.51 3.626 8.303l.577.124c2.957.618 4.873 3.492 4.316 6.47l-4.08 21.572c-.361 1.896.288 3.843 1.71 5.141l16.534 15.041c1.485 1.349 2.134 3.379 1.691 5.336z" fill="#fc7d4b"/>
      <path d="m291.809 381.301c-3.688 16.267-10.127 37.035-22.376 54.321-12.218 17.225-28.608 28.794-49.603 34.892l-3.853-8.355c-1.483-3.224-4.523-5.46-8.035-5.913l-.093-.01c16.421-6.696 29.659-17.266 39.971-31.802 8.489-11.96 19.986-39.992 27.619-61.831l14.68 13.361c1.484 1.35 2.133 3.38 1.69 5.337z" fill="#fb6a3b"/>
      <path d="m228.775 467.468c-13.613 5.363-29.423 8.075-47.553 8.209-.969.01-1.929-.237-2.774-.712l-40.128-22.503c-1.33-.742-2.3-2.011-2.671-3.496l-2.104-8.395c-.402-1.598-1.495-2.949-2.991-3.661l-28.247-13.51c-1.32-.629-2.331-1.753-2.826-3.125l-14.108-38.89c-.227-.629-.351-1.289-.34-1.96h36.333c2.939 0 5.755 1.258 7.704 3.465l8.384 9.436c1.299 1.464 2.991 2.537 4.878 3.073l36.446 10.395c3.723 1.062 6.538 4.125 7.281 7.92l1.784 9.024c.413 2.094 1.475 4.022 3.032 5.487l6.27 5.93c2.217 2.101 3.327 4.992 3.223 7.879-.105 2.902 1.855 5.461 4.735 5.835l9.923 1.289c3.518.457 6.554 2.69 8.038 5.912z" fill="#fb5532"/>
      <g fill="#ec462e">
        <path d="m228.772 467.465c-6.15 2.431-12.754 4.316-19.81 5.645l-3.472-7.211c-1.391-2.895-4.244-4.904-7.551-5.316l-9.333-1.154c-2.709-.34-4.553-2.637-4.45-5.244.093-2.596-.948-5.202-3.029-7.088l-5.893-5.336c-1.463-1.308-2.462-3.049-2.854-4.924l-1.679-8.118c-.701-3.41-3.338-6.16-6.84-7.118l-34.264-9.344c-1.772-.484-3.358-1.453-4.584-2.761l-7.881-8.489c-1.834-1.988-4.481-3.111-7.242-3.111h-18.523l-5.996-16.514c-.227-.628-.35-1.288-.34-1.957h36.335c2.936 0 5.759 1.257 7.706 3.461l8.386 9.436c1.298 1.473 2.988 2.545 4.873 3.08l36.448 10.395c3.719 1.061 6.542 4.121 7.283 7.922l1.782 9.024c.412 2.091 1.473 4.018 3.029 5.481l6.274 5.934c2.215 2.102 3.327 4.986 3.224 7.881s1.854 5.46 4.729 5.831l9.931 1.288c3.513.464 6.552 2.689 8.035 5.913z"/>
        <path d="m228.775 467.468c-13.613 5.363-29.423 8.075-47.553 8.209-.969.01-1.929-.237-2.774-.712l-17.749-9.952c23.256-.454 42.665-5.188 58.526-14.335 1.65 1.052 2.991 2.568 3.836 4.393z"/>
      </g>
    </g>
    <path d="m105.198 236.719c32.573-13.27-1.193-44.973 11.824-72.97 2.404-5.171-.234-11.306-5.609-13.208-11.731-4.152-29.678-4.777-35.367 26.341-8.694 47.562-21.005 50.071-44.601 65.316-16.599 10.724-18.179 41.173-10.768 64.635 2.055 6.507 11.248 6.673 13.617.274 7.436-20.08 25.936-52.068 70.904-70.388z" fill="#fb1466"/>
    <path d="m105.194 236.715c-44.965 18.326-63.466 50.317-70.902 70.397-2.362 6.394-11.561 6.229-13.613-.278-2.527-7.993-4.001-16.79-4.197-25.349 10.591-18.048 29.33-38.839 62.301-52.266 32.579-13.273-1.186-44.975 11.829-72.975.866-1.856 1.073-3.836.743-5.693 6.693-3.29 14.16-2.094 20.059-.01 5.373 1.908 8.013 8.034 5.61 13.211-13.016 27.998 20.749 59.7-11.83 72.963z" fill="#e01058"/>
    <g>
      <path d="m315.946 478.807c13.454-13.612 38.631-44.77 44.33-91.768.572-4.719 4.79-8.142 9.517-7.634 19.11 2.053 64.332 3.608 80.293-24.722 9.737-17.283 24.224-22.632 36.734-23.493 7.805-.537 11.823 9.102 5.871 14.179-7.176 6.12-13.866 15.332-14.988 28.748-2.566 30.685 12.786 56.257-29.151 54.722s-58.302 1.023-61.371 28.128c-2.702 23.871-38.326 46.551-68.097 35.906-5.882-2.102-7.528-9.625-3.138-14.066z" fill="#e01058"/>
      <path d="m492.695 345.373c-7.178 6.116-13.871 15.325-14.995 28.742-2.568 30.692 12.788 56.257-29.144 54.721-41.943-1.526-58.31 1.021-61.373 28.134-2.702 23.864-38.323 46.553-68.097 35.9-5.889-2.094-7.528-9.622-3.135-14.067.629-.639 1.289-1.32 1.98-2.042 23.658-2.021 45.645-19.863 47.739-38.406 3.063-27.113 19.43-29.67 61.373-28.134 41.933 1.537 26.587-24.04 29.145-54.721.004-.048.008-.095.012-.142.735-8.58 6.004-16.223 13.785-19.913 5.617-2.664 11.408-3.879 16.833-4.252 7.806-.537 11.828 9.095 5.877 14.18z" fill="#be0c4a"/>
    </g>
    <g>
      <path d="m174.121 376.305-23.117 21.572-8.674-2.472c-1.885-.536-3.575-1.607-4.873-3.08l-1.432-1.607 27.557-25.713c3.121-2.905 8.005-2.74 10.92.381 2.906 3.12 2.741 8.003-.381 10.919z" fill="#fc7d4b"/>
    </g>
    <g>
      <path d="m217.832 290.336-8.344 29.968c-.453 1.628-1.432 3.07-2.781 4.09l-43.855 33.131c-1.401 1.051-3.039 1.566-4.656 1.566-2.339 0-4.656-1.061-6.171-3.07-2.575-3.41-1.896-8.252 1.504-10.827l41.774-31.554 4.389-15.772c.288.268.721.381 1.133.196z" fill="#fc7d4b"/>
    </g>
    <g>
      <path d="m285.061 371.36-1.793 9.498c-.69 3.709-3.935 6.294-7.582 6.294-.474 0-.948-.041-1.432-.134-4.193-.793-6.954-4.832-6.171-9.024l3.791-20.14c.216 1.164.814 2.246 1.71 3.07z" fill="#fb5532"/>
    </g>
    <g>
      <path d="m337.742 256.848-28.702 18.257c-3.625 2.306-5.441 6.617-4.558 10.822l3.158 15.035c.812 3.868 3.764 6.931 7.598 7.887l9.773 2.436c4.267 1.064 8.739-.696 11.138-4.381l20.447-31.416c2.744-4.216 2.046-9.798-1.653-13.208l-4.676-4.312c-3.438-3.17-8.579-3.63-12.525-1.12z" fill="#fb946d"/>
      <path d="m356.595 275.492-20.44 31.413c-2.403 3.682-6.879 5.445-11.138 4.383l-9.777-2.444c-3.176-.784-5.734-3.011-6.982-5.951l.33.083c4.27 1.062 8.735-.691 11.138-4.373l20.451-31.424c2.31-3.548 2.176-8.054-.124-11.427 3.496-1.145 7.415-.371 10.22 2.217l4.672 4.311c3.702 3.414 4.393 8.994 1.65 13.212z" fill="#fc7d4b"/>
    </g>
    <g>
      <path d="m322.221 159.127-25.115 15.976c-3.172 2.018-4.761 5.79-3.988 9.47l2.764 13.156c.711 3.384 3.293 6.065 6.649 6.901l8.551 2.132c3.734.931 7.647-.609 9.746-3.834l17.892-27.49c2.401-3.69 1.79-8.573-1.446-11.557l-4.092-3.773c-3.01-2.776-7.508-3.178-10.961-.981z" fill="#fb946d"/>
      <path d="m338.722 175.435-17.893 27.495c-2.104 3.218-6.013 4.765-9.746 3.826l-8.549-2.124c-2.454-.608-4.486-2.197-5.682-4.331 3.393.444 6.786-1.093 8.694-4.022l17.893-27.484c2.063-3.176 1.898-7.219-.237-10.2 3.29-1.568 7.25-1 9.983 1.516l4.084 3.764c3.237 2.99 3.856 7.868 1.453 11.56z" fill="#fc7d4b"/>
    </g>
  </g>
</svg>