<?xml version="1.0" encoding="utf-8"?>
<svg viewBox="0 0 500 500" xmlns="http://www.w3.org/2000/svg">
  <path d="M 216.802 177.292 C 216.569 177.292 216.334 177.284 216.097 177.271 L 114.461 171.095 C 110.596 170.861 107.133 168.711 105.295 165.402 C 103.457 162.093 103.498 158.09 105.405 154.801 C 105.942 153.874 118.85 131.896 143.332 112.726 C 176.418 86.825 214.786 78.424 254.285 88.433 C 257.563 89.264 260.274 91.49 261.671 94.492 C 263.066 97.492 262.995 100.952 261.476 103.906 L 226.922 171.197 C 224.995 174.946 221.061 177.292 216.802 177.292 Z M 216.802 177.292" fill="#ff5b5b" style="" transform="matrix(0.703892, 0.710307, -0.710307, 0.703892, 147.195727, -91.469415)"/>
  <path d="M 149.391 415.864 C 147.526 415.864 145.663 415.411 143.976 414.499 C 140.564 412.659 138.354 409.217 138.127 405.378 L 132.176 304.469 C 131.912 299.976 134.405 295.751 138.501 293.75 L 208.225 259.742 C 211.291 258.248 214.863 258.192 217.961 259.592 C 221.061 260.988 223.348 263.69 224.192 266.948 C 234.378 306.198 225.528 344.246 198.603 376.972 C 178.681 401.193 155.897 413.907 154.938 414.438 C 153.214 415.388 151.302 415.864 149.391 415.864 Z M 149.391 415.864" fill="#ff193d" style="" transform="matrix(0.703892, 0.710307, -0.710307, 0.703892, 292.898106, -28.162806)"/>
  <path d="M 406.424 167.577 L 333.892 96.71 C 330.985 93.87 326.706 92.812 322.743 93.949 C 273.92 107.983 233.794 129.992 203.474 159.362 C 197.151 165.49 191.074 172.132 185.414 179.1 C 168.958 199.345 155.182 223.284 144.472 250.252 C 137.65 267.44 132.077 285.853 127.905 304.978 C 120.623 338.386 120.133 362.33 120.116 363.334 C 120.067 366.286 121.243 369.13 123.38 371.218 C 125.485 373.274 128.347 374.429 131.335 374.429 L 131.471 374.429 C 132.507 374.418 157.119 374.045 191.486 367.099 C 211.16 363.122 230.111 357.779 247.809 351.211 C 275.569 340.905 300.234 327.608 321.107 311.686 C 328.298 306.206 335.15 300.321 341.476 294.192 C 371.796 264.819 394.587 225.875 409.215 178.434 C 410.402 174.582 409.331 170.417 406.424 167.577 Z M 406.424 167.577" fill="#e1f1fa" style="" transform="matrix(0.703892, 0.710307, -0.710307, 0.703892, 244.626331, -118.883531)"/>
  <path d="M 146.073 230.159 L 91.403 175.989 C 87.367 171.989 80.928 171.606 76.401 175.097 C 72.884 177.808 69.536 180.723 66.45 183.755 C 28.089 221.446 26.657 279.847 26.616 282.314 C 26.563 285.329 27.746 288.23 29.899 290.361 C 32.017 292.46 34.894 293.638 37.898 293.638 C 37.946 293.638 37.994 293.638 38.042 293.634 C 40.542 293.605 99.739 292.438 138.095 254.747 C 141.182 251.717 144.15 248.425 146.912 244.965 C 150.469 240.514 150.107 234.158 146.073 230.159 Z M 146.073 230.159" fill="#fff261" style="" transform="matrix(0.703892, 0.710307, -0.710307, 0.703892, 191.679599, 6.548405)"/>
  <path d="M 107.054 163.44 L 73.229 196.678 C 71.093 198.772 69.886 201.615 69.873 204.582 C 69.86 207.548 71.045 210.391 73.162 212.488 L 162.536 301.051 C 164.65 303.147 167.528 304.325 170.536 304.325 C 173.541 304.325 176.427 303.147 178.56 301.051 L 212.386 267.815 Z M 107.054 163.44" fill="#1b3b6b" style="" transform="matrix(0.703892, 0.710307, -0.710307, 0.703892, 207.917911, -30.990765)"/>
  <path d="M 299.568 270.117 C 290.333 270.117 281.665 266.568 275.163 260.126 C 261.742 246.825 261.835 225.189 275.371 211.886 C 281.927 205.443 290.626 201.894 299.86 201.894 C 309.092 201.894 317.76 205.443 324.262 211.886 C 330.765 218.329 334.325 226.895 334.284 236.007 C 334.246 245.117 330.613 253.683 324.055 260.126 C 317.498 266.568 308.799 270.117 299.568 270.117 Z M 299.568 270.117" fill="#06ccab" style="" transform="matrix(0.703892, 0.710307, -0.710307, 0.703892, 256.386112, -143.010851)"/>
  <path d="M 299.515 281.052 C 287.32 281.052 275.877 276.366 267.293 267.86 C 249.567 250.296 249.69 221.718 267.566 204.155 C 276.223 195.648 287.71 190.961 299.902 190.961 C 312.096 190.961 323.539 195.648 332.128 204.155 C 340.714 212.663 345.414 223.975 345.362 236.007 C 345.31 248.039 340.515 259.351 331.855 267.86 C 323.194 276.366 311.711 281.052 299.515 281.052 Z M 299.805 213.322 C 293.666 213.322 287.882 215.683 283.522 219.967 C 274.522 228.812 274.46 243.202 283.385 252.048 C 287.708 256.331 293.472 258.691 299.611 258.691 C 305.753 258.691 311.537 256.331 315.895 252.048 C 320.255 247.762 322.672 242.067 322.697 236.007 C 322.723 229.948 320.356 224.252 316.033 219.967 C 311.71 215.683 305.947 213.322 299.805 213.322 Z M 299.805 213.322" fill="#1b3b6b" style="" transform="matrix(0.703892, 0.710307, -0.710307, 0.703892, 256.386631, -143.010073)"/>
  <path d="M 463.485 190.158 C 461.332 188.025 458.377 186.826 455.34 186.885 C 453.659 186.905 413.597 187.571 364.07 202.005 L 451.057 288.199 C 465.894 239.392 466.74 199.865 466.767 198.208 C 466.818 195.193 465.634 192.29 463.485 190.158 Z M 463.485 190.158" fill="#ff5b5b" style="" transform="matrix(0.703892, 0.710307, -0.710307, 0.703892, 291.735936, -224.737445)"/>
  <path d="M 389.898 163.046 L 353.416 126.896 L 105.17 370.812 C 107.286 372.909 110.162 374.086 113.167 374.086 L 113.309 374.086 C 114.345 374.075 139.103 373.696 173.679 366.61 C 193.471 362.551 212.532 357.099 230.335 350.4 C 258.264 339.885 283.074 326.317 304.072 310.074 C 311.304 304.482 318.198 298.48 324.56 292.227 C 355.061 262.258 377.987 222.527 392.702 174.124 C 393.901 170.195 392.823 165.945 389.898 163.046 Z M 389.898 163.046" fill="#cdebfc" style="" transform="matrix(0.703892, 0.710307, -0.710307, 0.703892, 251.708729, -102.819666)"/>
  <path d="M 134.819 226.796 L 107.485 199.71 L 18.644 286.998 L 18.644 287.001 C 20.762 289.098 23.639 290.276 26.645 290.276 L 26.786 290.276 C 29.288 290.245 88.481 289.075 126.842 251.384 C 129.928 248.353 132.896 245.062 135.655 241.602 C 139.215 237.15 138.855 230.795 134.819 226.796 Z M 134.819 226.796" fill="#fdbf00" style="" transform="matrix(0.703892, 0.710307, -0.710307, 0.703892, 197.227267, 16.875077)"/>
  <path d="M 134.081 224.94 L 92.209 266.082 L 136.897 310.364 C 139.012 312.46 141.889 313.639 144.896 313.639 C 147.903 313.639 150.787 312.46 152.922 310.364 L 186.746 277.126 Z M 134.081 224.94" fill="#001035" style="" transform="matrix(0.703892, 0.710307, -0.710307, 0.703892, 232.578601, -19.333082)"/>
  <path d="M 319.224 213.982 C 319.223 213.982 319.223 213.982 319.223 213.982 L 270.125 262.221 L 270.127 262.221 C 276.628 268.663 285.294 272.213 294.528 272.213 C 303.762 272.213 312.46 268.663 319.018 262.221 C 325.575 255.778 329.208 247.212 329.246 238.101 C 329.283 228.992 325.727 220.424 319.224 213.982 Z M 319.224 213.982" fill="#1cadb5" style="" transform="matrix(0.703892, 0.710307, -0.710307, 0.703892, 261.41312, -140.885699)"/>
  <path d="M 325.475 206.922 L 309.38 222.734 C 313.704 227.018 316.071 232.714 316.046 238.774 C 316.018 244.833 313.602 250.53 309.243 254.814 C 304.882 259.097 299.101 261.458 292.959 261.458 C 286.817 261.458 281.054 259.097 276.731 254.814 C 276.731 254.814 276.731 254.814 276.731 254.81 L 260.637 270.625 L 260.637 270.627 C 269.225 279.133 280.668 283.819 292.862 283.819 C 305.058 283.819 316.541 279.133 325.203 270.627 C 333.858 262.118 338.658 250.807 338.709 238.774 C 338.759 226.741 334.059 215.429 325.475 206.922 Z M 325.475 206.922" fill="#001035" style="" transform="matrix(0.703892, 0.710307, -0.710307, 0.703892, 263.02396, -140.203814)"/>
  <path d="M 455.855 205.177 L 399.937 260.123 L 443.43 303.22 C 458.268 254.412 459.113 214.887 459.14 213.228 C 459.192 210.214 458.008 207.311 455.855 205.177 Z M 455.855 205.177" fill="#ff193d" style="" transform="matrix(0.703892, 0.710307, -0.710307, 0.703892, 307.748967, -229.834583)"/>
</svg>